<svg xmlns="http://www.w3.org/2000/svg" width="1200" height="630" viewBox="0 0 1200 630" role="img" aria-label="AI Email Reply Generator">
  <defs>
    <linearGradient id="bg" x1="0" y1="0" x2="1" y2="1">
      <stop offset="0%" stop-color="#0f172a"/>
      <stop offset="50%" stop-color="#111827"/>
      <stop offset="100%" stop-color="#0b1220"/>
    </linearGradient>
    <linearGradient id="accent" x1="0" y1="0" x2="1" y2="0">
      <stop offset="0%" stop-color="#ff3d3d"/>
      <stop offset="100%" stop-color="#ff8a3d"/>
    </linearGradient>
  </defs>
  <rect width="1200" height="630" fill="url(#bg)"/>
  <g opacity="0.2">
    <circle cx="180" cy="120" r="90" fill="#ff3d3d"/>
    <circle cx="1080" cy="520" r="140" fill="#3b82f6"/>
    <circle cx="900" cy="120" r="60" fill="#22c55e"/>
  </g>
  <g transform="translate(120 150)">
    <rect x="0" y="0" width="960" height="330" rx="24" fill="#0f172a" stroke="#1f2937" stroke-width="2"/>
    <rect x="40" y="40" width="360" height="28" rx="6" fill="#111827" stroke="#263243"/>
    <rect x="40" y="88" width="520" height="18" rx="6" fill="#111827" stroke="#263243"/>
    <rect x="40" y="122" width="620" height="18" rx="6" fill="#111827" stroke="#263243"/>
    <rect x="40" y="156" width="560" height="18" rx="6" fill="#111827" stroke="#263243"/>
    <rect x="40" y="190" width="480" height="18" rx="6" fill="#111827" stroke="#263243"/>
    <rect x="40" y="238" width="200" height="40" rx="10" fill="url(#accent)"/>
    <rect x="260" y="238" width="180" height="40" rx="10" fill="#111827" stroke="#263243"/>
  </g>
  <g transform="translate(120 90)">
    <text x="0" y="0" font-family="Segoe UI, Arial, sans-serif" font-size="44" font-weight="700" fill="#ffffff">AI Email Reply Generator</text>
    <text x="0" y="48" font-family="Segoe UI, Arial, sans-serif" font-size="20" fill="#9ca3af">Free professional email response tool • No login required</text>
  </g>
</svg>
